<?xml version="1.0" encoding="UTF-8"?>
<svg width="120px" height="120px" viewBox="0 0 120 120" version="1.1" xmlns="http://www.w3.org/2000/svg" xmlns:xlink="http://www.w3.org/1999/xlink">
    <title>Roomaity Icon</title>
    <defs>
        <linearGradient x1="0%" y1="0%" x2="100%" y2="100%" id="gradient">
            <stop stop-color="#FF5A5F" offset="0%"></stop>
            <stop stop-color="#FC642D" offset="100%"></stop>
        </linearGradient>
        <filter id="shadow" x="-20%" y="-20%" width="140%" height="140%">
            <feGaussianBlur in="SourceAlpha" stdDeviation="3"></feGaussianBlur>
            <feOffset dx="0" dy="2"></feOffset>
            <feComponentTransfer>
                <feFuncA type="linear" slope="0.3"></feFuncA>
            </feComponentTransfer>
            <feMerge>
                <feMergeNode></feMergeNode>
                <feMergeNode in="SourceGraphic"></feMergeNode>
            </feMerge>
        </filter>
    </defs>
    <g id="Logo" stroke="none" stroke-width="1" fill="none" fill-rule="evenodd" filter="url(#shadow)">
        <!-- Modern House Icon representing unity and sharing -->
        <g id="House" transform="translate(20, 20)">
            <!-- House Base -->
            <path d="M40,30 L40,80 L0,80 L0,30 L40,30 Z" fill="#FFFFFF" />
            
            <!-- Roof -->
            <path d="M20,0 L50,25 L-10,25 L20,0 Z" fill="url(#gradient)" />
            
            <!-- Door -->
            <rect x="15" y="50" width="10" height="30" rx="1" fill="#484848" />
            
            <!-- Windows -->
            <rect x="5" y="40" width="10" height="10" rx="1" fill="#F7F7F7" stroke="#DDDDDD" stroke-width="1" />
            <rect x="25" y="40" width="10" height="10" rx="1" fill="#F7F7F7" stroke="#DDDDDD" stroke-width="1" />
            
            <!-- People silhouettes representing unity and sharing -->
            <g id="People" transform="translate(5, 30)">
                <!-- Person 1 -->
                <circle cx="10" cy="5" r="4" fill="#FF5A5F" />
                <path d="M5,15 C5,10 15,10 15,15" stroke="#FF5A5F" stroke-width="2" fill="none" />
                
                <!-- Person 2 -->
                <circle cx="20" cy="5" r="4" fill="#FC642D" />
                <path d="M15,15 C15,10 25,10 25,15" stroke="#FC642D" stroke-width="2" fill="none" />
                
                <!-- Connection line representing unity -->
                <path d="M10,5 L20,5" stroke="#484848" stroke-width="1" stroke-dasharray="2,1" />
            </g>
        </g>
    </g>
</svg>
