<?xml version="1.0" encoding="UTF-8" standalone="no"?>
<svg width="400" height="100" viewBox="0 0 400 100" xmlns="http://www.w3.org/2000/svg">
  <!-- Background -->
  <rect x="0" y="0" width="400" height="100" fill="none"/>
  
  <!-- Logo Icon -->
  <g transform="translate(20, 10) scale(0.8)">
    <circle cx="50" cy="50" r="45" fill="#f8f9fa" stroke="#e83e8c" stroke-width="3"/>
    <path d="M50 20 L80 45 L72.5 45 L72.5 75 L27.5 75 L27.5 45 L20 45 Z" fill="#e83e8c"/>
    <rect x="42.5" y="55" width="15" height="20" fill="#f8f9fa" rx="1" ry="1"/>
    <rect x="32.5" y="50" width="7.5" height="7.5" fill="#f8f9fa" rx="1" ry="1"/>
    <rect x="60" y="50" width="7.5" height="7.5" fill="#f8f9fa" rx="1" ry="1"/>
    <circle cx="37.5" cy="37.5" r="5" fill="#6c757d"/>
    <path d="M37.5 42.5 L37.5 52.5 M32.5 47.5 L42.5 47.5" stroke="#6c757d" stroke-width="2" stroke-linecap="round"/>
    <circle cx="62.5" cy="37.5" r="5" fill="#6c757d"/>
    <path d="M62.5 42.5 L62.5 52.5 M57.5 47.5 L67.5 47.5" stroke="#6c757d" stroke-width="2" stroke-linecap="round"/>
  </g>
  
  <!-- Text -->
  <text x="130" y="45" font-family="Tajawal, sans-serif" font-size="32" font-weight="bold" fill="#e83e8c">روميتي</text>
  <text x="130" y="75" font-family="Tajawal, sans-serif" font-size="18" fill="#6c757d">منصة البحث عن شريك السكن المثالي</text>
</svg>
