<?xml version="1.0" encoding="UTF-8" standalone="no"?>
<svg width="200" height="200" viewBox="0 0 200 200" xmlns="http://www.w3.org/2000/svg">
  <!-- Background Circle -->
  <circle cx="100" cy="100" r="90" fill="#f8f9fa" stroke="#e83e8c" stroke-width="4"/>
  
  <!-- House Icon -->
  <path d="M100 40 L160 90 L145 90 L145 150 L55 150 L55 90 L40 90 Z" fill="#e83e8c"/>
  
  <!-- Door -->
  <rect x="85" y="110" width="30" height="40" fill="#f8f9fa" rx="2" ry="2"/>
  
  <!-- Windows -->
  <rect x="65" y="100" width="15" height="15" fill="#f8f9fa" rx="2" ry="2"/>
  <rect x="120" y="100" width="15" height="15" fill="#f8f9fa" rx="2" ry="2"/>
  
  <!-- People Icons -->
  <circle cx="75" cy="75" r="10" fill="#6c757d"/>
  <path d="M75 85 L75 105 M65 95 L85 95" stroke="#6c757d" stroke-width="4" stroke-linecap="round"/>
  
  <circle cx="125" cy="75" r="10" fill="#6c757d"/>
  <path d="M125 85 L125 105 M115 95 L135 95" stroke="#6c757d" stroke-width="4" stroke-linecap="round"/>
  
  <!-- Text -->
  <text x="100" y="180" font-family="Tajawal, sans-serif" font-size="24" font-weight="bold" text-anchor="middle" fill="#212529">روميتي</text>
</svg>
